<svg id="Layer_1" data-name="Layer 1" xmlns="http://www.w3.org/2000/svg" viewBox="0 0 400 300" width="406" height="306" class="illustration styles_illustrationTablet__1DWOa"><path d="M241.9,147.68s18.75,33.94,15.18,71.55" fill="none" stroke="#24285b" stroke-linecap="round" stroke-linejoin="round" stroke-width="8"></path><path d="M249,220.22s-12.65,1.4-11.23,8.29,6.93,6.64,6.93,6.64-4.45,13.66,7.77,13.46,18-15.89,14-25.13S249,220.22,249,220.22Z" fill="#ffd200"></path><path d="M267.65,209.85s-27.79-8.16-26.4,3.22,16.08,9,24.31,10.32S277.84,214.09,267.65,209.85Z" fill="#ffd200"></path><path d="M267.65,209.85s-27.79-8.16-26.4,3.22,16.08,9,24.31,10.32S277.84,214.09,267.65,209.85Z" fill="#fff" opacity="0.44"></path><path d="M143.81,147.68s-18.75,33.94-15.18,71.55" fill="none" stroke="#24285b" stroke-linecap="round" stroke-linejoin="round" stroke-width="8"></path><ellipse cx="195.81" cy="261.88" rx="119.13" ry="12.31" fill="#e6e6e6" opacity="0.45"></ellipse><path d="M136.68,220.22s12.65,1.4,11.23,8.29-6.92,6.64-6.92,6.64,4.44,13.66-7.78,13.46-18-15.89-14-25.13S136.68,220.22,136.68,220.22Z" fill="#ffd200"></path><path d="M216.34,190.05s7.5,30.88,1.28,52.54" fill="none" stroke="#24285b" stroke-linecap="round" stroke-linejoin="round" stroke-width="8"></path><polygon points="229.92 220.93 208.78 220.93 208.78 261.26 249.09 261.26 227.63 248.1 229.92 220.93" fill="#ffd200"></polygon><path d="M168.19,190.05s-7.5,30.88-1.28,52.54" fill="none" stroke="#24285b" stroke-linecap="round" stroke-linejoin="round" stroke-width="8"></path><circle cx="192.97" cy="143.69" r="62.21" fill="#a78bfa"></circle><path d="M239.57,102.62a62.2,62.2,0,0,1-101.84,69.89,62.21,62.21,0,1,0,101.84-69.89Z" opacity="0.09"></path><ellipse cx="174.45" cy="128.88" rx="6" ry="13.24" fill="#24285b"></ellipse><ellipse cx="211.11" cy="128.88" rx="6" ry="13.24" fill="#24285b"></ellipse><ellipse cx="160.64" cy="146.88" rx="9" ry="4.76" fill="#fff" opacity="0.36"></ellipse><ellipse cx="226.11" cy="146.88" rx="9" ry="4.76" fill="#fff" opacity="0.36"></ellipse><polygon points="154.61 220.93 175.75 220.93 175.75 261.26 135.44 261.26 156.9 248.1 154.61 220.93" fill="#ffd200"></polygon><path d="M118.06,209.85s27.8-8.16,26.41,3.22-16.09,9-24.32,10.32S107.87,214.09,118.06,209.85Z" fill="#ffd200"></path><path d="M118.06,209.85s27.8-8.16,26.41,3.22-16.09,9-24.32,10.32S107.87,214.09,118.06,209.85Z" fill="#fff" opacity="0.44"></path><path d="M283.46,248.56s-9.64-2.63-11.74-11.61c0,0,14.94-3,15.37,12.4Z" fill="#a78bfa" opacity="0.58"></path><path d="M284.64,247.6s-6.73-10.65-.8-20.61c0,0,11.36,7.22,6.31,20.64Z" fill="#a78bfa" opacity="0.73"></path><path d="M286.38,247.61s3.56-11.25,14.32-13.38c0,0,2,7.31-7,13.41Z" fill="#a78bfa"></path><polygon points="279.39 247.36 281.34 260.73 293.65 260.79 295.47 247.43 279.39 247.36" fill="#24285b"></polygon><line x1="153.92" y1="166.77" x2="233.11" y2="166.77" fill="none" stroke="#24285b" stroke-linecap="round" stroke-linejoin="round" stroke-width="3"></line><rect x="178.59" y="37.79" width="33.06" height="23.19" fill="#e6e6e6"></rect><polygon points="199.34 57.56 195.26 68.96 191.63 57.56 199.34 57.56" fill="#e6e6e6"></polygon><circle cx="186" cy="49.21" r="2.4" fill="#c1c1c1"></circle><circle cx="194.86" cy="49.21" r="2.4" fill="#c1c1c1"></circle><circle cx="203.97" cy="49.21" r="2.4" fill="#c1c1c1"></circle></svg>