<svg id="Layer_1" data-name="Layer 1" xmlns="http://www.w3.org/2000/svg" viewBox="0 0 400 300" width="406" height="306" class="illustration styles_illustrationTablet__1DWOa"><path d="M112.47,199.34l-.52,0a4,4,0,0,1-3.46-4.48c4.9-38.26,30.46-67.39,31.54-68.61a4,4,0,1,1,6,5.32h0c-.25.28-25,28.56-29.58,64.31A4,4,0,0,1,112.47,199.34Z" fill="#24285b"></path><ellipse cx="197.78" cy="243.33" rx="119.13" ry="12.31" fill="#e6e6e6" opacity="0.45"></ellipse><path d="M261.77,173.22l-1,0c-21.72-1.29-32.63-37.57-33.09-39.12a4,4,0,0,1,7.68-2.25h0c2.66,9,12.5,32.59,25.89,33.39,12.68.72,20-28,21.55-38.09a4,4,0,1,1,7.9,1.22C290,133,283.12,173.22,261.77,173.22Z" fill="#24285b"></path><path d="M120.09,198.07s12,4.15,9.14,10.56-8.22,5-8.22,5,1.33,14.3-10.55,11.41-14-19.46-8.15-27.6S120.09,198.07,120.09,198.07Z" fill="#ffd200"></path><path d="M219.6,228.05a3.85,3.85,0,0,1-1.1-.16,4,4,0,0,1-2.74-4.94c5.86-20.42-1.26-50.2-1.33-50.49a4,4,0,1,1,7.77-1.89c.32,1.3,7.69,32.15,1.25,54.58A4,4,0,0,1,219.6,228.05Z" fill="#24285b"></path><polygon points="231.9 202.38 210.76 202.38 210.76 242.71 251.06 242.71 229.61 229.56 231.9 202.38" fill="#ffd200"></polygon><path d="M168.88,228.05a4,4,0,0,1-3.84-2.9c-6.44-22.43.93-53.28,1.24-54.58a4,4,0,1,1,7.78,1.89c-.07.29-7.18,30.11-1.33,50.49a4,4,0,0,1-2.74,4.94A3.87,3.87,0,0,1,168.88,228.05Z" fill="#24285b"></path><circle cx="194.95" cy="125.15" r="62.21" fill="#a78bfa"></circle><path d="M241.55,84.08A62.2,62.2,0,0,1,139.71,154,62.21,62.21,0,1,0,241.55,84.08Z" opacity="0.09"></path><ellipse cx="176.43" cy="110.33" rx="6" ry="13.24" fill="#24285b"></ellipse><ellipse cx="213.08" cy="110.33" rx="6" ry="13.24" fill="#24285b"></ellipse><path d="M194.94,165c-27.57,0-29.76-25.16-29.78-25.41a1.5,1.5,0,0,1,3-.23c.07,1,2.1,23.38,28.06,22.63s27.1-21.68,27.13-22.57a1.5,1.5,0,0,1,3,.11c0,.25-1.21,24.61-30,25.45C195.85,165,195.39,165,194.94,165Z" fill="#24285b"></path><ellipse cx="162.62" cy="128.34" rx="9" ry="4.76" fill="#fff" opacity="0.36"></ellipse><ellipse cx="228.09" cy="128.34" rx="9" ry="4.76" fill="#fff" opacity="0.36"></ellipse><polygon points="156.58 202.38 177.73 202.38 177.73 242.71 137.42 242.71 158.87 229.56 156.58 202.38" fill="#ffd200"></polygon><path d="M104.21,183.86s28.91-1.84,25,9-17.67,5.25-26,4.7S93.34,185.76,104.21,183.86Z" fill="#ffd200"></path><path d="M104.21,183.86s28.91-1.84,25,9-17.67,5.25-26,4.7S93.34,185.76,104.21,183.86Z" fill="#fff" opacity="0.44"></path><path d="M279.12,125.54s-11-6.44-6.86-12.15,9-3.24,9-3.24,1.52-14.28,12.6-9.1,9.91,21.85,2.53,28.66S279.12,125.54,279.12,125.54Z" fill="#ffd200"></path><path d="M291.88,142.62s-28.7-3.92-22.78-13.74,18.36-1.65,26.4.53S302.91,142.9,291.88,142.62Z" fill="#ffd200"></path><path d="M291.88,142.62s-28.7-3.92-22.78-13.74,18.36-1.65,26.4.53S302.91,142.9,291.88,142.62Z" fill="#fff" opacity="0.44"></path><path d="M273.77,230s-9.64-2.64-11.74-11.61c0,0,14.94-3,15.37,12.4Z" fill="#a78bfa" opacity="0.58"></path><path d="M275,229.06s-6.74-10.65-.81-20.61c0,0,11.36,7.22,6.31,20.63Z" fill="#a78bfa" opacity="0.73"></path><path d="M276.69,229.07s3.56-11.25,14.32-13.38c0,0,2,7.3-7,13.41Z" fill="#a78bfa"></path><polygon points="269.7 228.81 271.65 242.19 283.96 242.24 285.78 228.88 269.7 228.81" fill="#24285b"></polygon></svg>